<svg xmlns="http://www.w3.org/2000/svg" viewBox="0 0 48 48" fill="none">
  <!-- 案K: 現在のダッシュカムデザイン (赤基調) + レンズ内に正確なテスラロゴ -->
  <!-- ダッシュカム筐体 -->
  <rect x="4" y="12" width="40" height="24" rx="4" fill="#1a0505" stroke="#cc0000" stroke-width="2"/>
  <!-- レンズ外輪 -->
  <circle cx="24" cy="24" r="8" fill="#0d0000" stroke="#e64040" stroke-width="1.5"/>
  <!-- テスラロゴ (公式形状を縮小配置) -->
  <!-- 元データ: viewBox 0 0 1000 1000 のパスを scale(0.0141) + translate で lens 内に配置 -->
  <g transform="translate(17.5, 17.5) scale(0.013)" fill="#e64040">
    <!-- 上部の弧 (T の横棒上端) -->
    <path d="M963 134 C963 134 958 150 937 188 C783 120 632 99 500 100 C500 100 500 100 500 100 C368 99 217 120 63 188 C44 154 37 134 37 134 C206 67 364 44 500 44 C636 44 794 67 963 134Z"/>
    <!-- T の本体 (縦棒 + 横棒下端) -->
    <path d="M500 250 C500 250 595 134 595 134 C595 134 759 137 922 213 C880 275 798 306 798 306 C792 251 753 237 630 237 C630 237 500 966 500 966 C500 966 369 237 369 237 C247 237 208 251 202 306 C202 306 119 275 78 213 C241 137 404 134 404 134 C404 134 500 250 500 250Z"/>
  </g>
  <!-- 録画インジケーター -->
  <circle cx="38" cy="18" r="2.5" fill="#ff3333"/>
</svg>
